<svg width="180" height="180" viewBox="0 0 180 180" fill="none" xmlns="http://www.w3.org/2000/svg">
  <rect width="180" height="180" rx="90" fill="#fff" />
  <path fill-rule="evenodd" clip-rule="evenodd" d="M0 67.5C0 43.8728 0 32.0592 4.59816 23.0348C8.64282 15.0967 15.0967 8.64282 23.0348 4.59816C32.0592 0 43.8728 0 67.5 0H112.5C136.127 0 147.941 0 156.965 4.59816C164.903 8.64282 171.357 15.0967 175.402 23.0348C180 32.0592 180 43.8728 180 67.5V112.5C180 136.127 180 147.941 175.402 156.965C171.357 164.903 164.903 171.357 156.965 175.402C147.941 180 136.127 180 112.5 180H67.5C43.8728 180 32.0592 180 23.0348 175.402C15.0967 171.357 8.64282 164.903 4.59816 156.965C0 147.941 0 136.127 0 112.5V67.5ZM91.8767 145.04C122.317 145.04 156.963 120.363 156.963 89.9223C156.963 59.4817 122.317 34.8047 91.8767 34.8047V51.34C113.185 51.34 132.16 68.6139 132.16 89.9223C132.16 111.231 113.185 128.505 91.8767 128.505V145.04ZM88.1138 34.8047C57.6732 34.8047 23.0273 59.4817 23.0273 89.9223C23.0273 114.159 45.6582 134.741 70.2469 142.125C68.5542 145.734 65.3315 150.585 59.4049 156.511C70.2362 156.008 79.7504 151.895 88.1138 145.04V128.505C66.8053 128.505 47.8302 111.231 47.8303 89.9223C47.8303 68.6139 66.8053 51.34 88.1138 51.34V34.8047Z" fill="#33B969" />
</svg>